<?xml version="1.0" encoding="iso-8859-1"?>
<svg fill="#000000" height="800px" width="800px" version="1.1" id="Layer_1" xmlns="http://www.w3.org/2000/svg" xmlns:xlink="http://www.w3.org/1999/xlink" 
	 viewBox="0 0 512.001 512.001" xml:space="preserve">
<g>
	<g>
		<path d="M428.604,267.941c-0.028-0.739-0.084-1.479-0.124-2.218c-0.06-1.171-0.114-2.34-0.201-3.514
			c-0.072-0.954-0.173-1.911-0.26-2.866c-0.089-0.957-0.165-1.911-0.269-2.869c-0.12-1.088-0.269-2.178-0.408-3.267
			c-0.106-0.819-0.2-1.638-0.318-2.458c-0.173-1.212-0.376-2.424-0.574-3.637c-0.114-0.691-0.217-1.382-0.338-2.073
			c-0.234-1.327-0.494-2.655-0.756-3.984c-0.113-0.571-0.217-1.141-0.335-1.711c-0.298-1.439-0.622-2.879-0.953-4.317
			c-0.104-0.452-0.201-0.905-0.308-1.356c-0.369-1.553-0.763-3.107-1.167-4.66c-0.086-0.326-0.166-0.654-0.253-0.981
			c-0.446-1.679-0.917-3.355-1.406-5.032c-0.055-0.19-0.108-0.38-0.165-0.57c-0.531-1.804-1.085-3.608-1.662-5.409
			c-0.017-0.052-0.032-0.104-0.049-0.156C384.847,110.147,270.983,8.528,265.318,3.524c-5.322-4.7-13.31-4.698-18.63,0
			C240.017,9.417,83.286,149.279,83.286,273.674c0,53.589,29.466,102.964,85.215,142.788c29.531,21.094,58.802,34.163,73.432,40.014
			v41.454c0,7.771,6.3,14.071,14.071,14.071c7.77,0,14.071-6.3,14.071-14.071v-41.454c0.183-0.073,0.372-0.149,0.559-0.225
			c0.174-0.07,0.36-0.146,0.539-0.218c0.436-0.177,0.872-0.353,1.333-0.542c0.422-0.173,0.864-0.356,1.303-0.539
			c0.243-0.101,0.477-0.197,0.726-0.301c13.456-5.619,34.806-15.599,57.444-30.332c0.044-0.03,0.089-0.058,0.132-0.086
			c1.179-0.768,2.361-1.549,3.546-2.343c0.111-0.075,0.224-0.149,0.336-0.225c1.117-0.751,2.237-1.514,3.359-2.289
			c0.172-0.118,0.343-0.235,0.514-0.355c1.061-0.736,2.123-1.484,3.187-2.24c0.152-0.108,0.303-0.211,0.455-0.319
			c0.058-0.042,0.114-0.084,0.172-0.125c1.556-1.114,3.114-2.242,4.669-3.401c1.788-1.333,3.543-2.678,5.275-4.03
			c0.086-0.068,0.169-0.136,0.256-0.204c1.528-1.196,3.035-2.401,4.518-3.613c0.234-0.19,0.459-0.384,0.69-0.574
			c1.32-1.086,2.628-2.177,3.912-3.277c0.363-0.311,0.716-0.626,1.076-0.937c1.13-0.979,2.256-1.96,3.357-2.948
			c0.476-0.426,0.937-0.857,1.407-1.285c0.962-0.877,1.924-1.755,2.864-2.638c0.566-0.532,1.117-1.068,1.674-1.603
			c0.818-0.784,1.636-1.569,2.437-2.358c0.637-0.63,1.261-1.265,1.888-1.9c0.69-0.698,1.383-1.394,2.06-2.095
			c0.702-0.727,1.387-1.459,2.074-2.191c0.574-0.612,1.152-1.223,1.717-1.839c0.75-0.818,1.483-1.639,2.215-2.461
			c0.476-0.536,0.955-1.069,1.423-1.608c0.781-0.896,1.546-1.798,2.306-2.702c0.394-0.469,0.792-0.937,1.181-1.409
			c0.802-0.971,1.589-1.947,2.365-2.925c0.322-0.407,0.647-0.812,0.965-1.219c0.815-1.041,1.611-2.087,2.398-3.136
			c0.262-0.349,0.523-0.697,0.782-1.046c0.815-1.103,1.613-2.211,2.396-3.322c0.212-0.303,0.426-0.604,0.637-0.906
			c0.806-1.157,1.593-2.316,2.365-3.481c0.173-0.262,0.348-0.523,0.519-0.787c0.789-1.203,1.559-2.412,2.312-3.625
			c0.142-0.228,0.283-0.457,0.424-0.685c0.764-1.244,1.51-2.492,2.236-3.744c0.118-0.204,0.235-0.407,0.352-0.611
			c0.733-1.276,1.447-2.557,2.14-3.841c0.101-0.187,0.2-0.374,0.3-0.56c0.697-1.302,1.373-2.609,2.03-3.92
			c0.087-0.174,0.173-0.349,0.259-0.523c0.656-1.323,1.293-2.648,1.907-3.981c0.079-0.17,0.156-0.342,0.234-0.514
			c0.609-1.334,1.202-2.671,1.77-4.013c0.076-0.179,0.148-0.357,0.224-0.536c0.56-1.335,1.102-2.674,1.621-4.017
			c0.075-0.193,0.145-0.387,0.22-0.58c0.508-1.331,0.999-2.665,1.468-4.005c0.075-0.214,0.145-0.429,0.22-0.644
			c0.453-1.318,0.893-2.64,1.307-3.965c0.077-0.248,0.149-0.497,0.225-0.746c0.398-1.296,0.784-2.593,1.144-3.896
			c0.08-0.291,0.153-0.583,0.232-0.874c0.341-1.264,0.673-2.527,0.979-3.796c0.083-0.346,0.158-0.694,0.238-1.04
			c0.284-1.22,0.563-2.441,0.816-3.667c0.084-0.409,0.156-0.82,0.238-1.23c0.229-1.168,0.457-2.336,0.657-3.509
			c0.084-0.494,0.153-0.989,0.234-1.483c0.176-1.095,0.352-2.19,0.502-3.288c0.082-0.599,0.145-1.202,0.219-1.801
			c0.124-1.002,0.253-2.004,0.356-3.01c0.075-0.732,0.127-1.466,0.19-2.201c0.076-0.882,0.163-1.763,0.222-2.647
			c0.065-0.946,0.101-1.894,0.148-2.842c0.032-0.682,0.08-1.362,0.103-2.045c0.056-1.638,0.084-3.281,0.084-4.928
			C428.715,271.767,428.676,269.855,428.604,267.941z M242.653,292.83l-25.034-25.034c-5.495-5.495-14.405-5.495-19.901,0
			c-5.495,5.495-5.495,14.405,0,19.901l44.933,44.933v93.575c-39.586-17.534-131.223-67.33-131.223-152.531
			c0-85.102,88.427-184.3,131.225-227.322V292.83z M400.493,278.031c-0.01,0.293-0.031,0.583-0.044,0.874
			c-0.053,1.2-0.117,2.396-0.207,3.583c-0.013,0.177-0.031,0.353-0.045,0.529c-6.3,78.336-90.603,125.049-129.401,142.51v-33.294
			l43.49-43.49c5.495-5.495,5.495-14.405,0-19.901c-5.496-5.495-14.403-5.495-19.901,0l-23.59,23.59v-81.036l43.49-43.49
			c5.495-5.495,5.495-14.405,0-19.901c-5.496-5.495-14.403-5.495-19.901,0l-23.59,23.59V47.812
			c38.282,38.724,111.062,120.607,126.749,197.418c0.034,0.165,0.072,0.329,0.104,0.494c0.193,0.957,0.366,1.911,0.54,2.866
			c0.093,0.509,0.19,1.019,0.277,1.528c0.142,0.823,0.272,1.646,0.4,2.468c0.1,0.642,0.198,1.283,0.29,1.924
			c0.107,0.746,0.205,1.49,0.301,2.236c0.093,0.723,0.179,1.446,0.259,2.17c0.077,0.684,0.151,1.366,0.218,2.049
			c0.077,0.798,0.143,1.596,0.208,2.392c0.049,0.615,0.101,1.231,0.142,1.845c0.06,0.917,0.104,1.832,0.146,2.745
			c0.022,0.498,0.053,0.996,0.07,1.493c0.048,1.414,0.076,2.825,0.076,4.233C400.577,275.137,400.546,276.589,400.493,278.031z"/>
	</g>
</g>
<g>
	<g>
		<path d="M347.986,306.191c-0.183-0.901-0.45-1.786-0.802-2.631c-0.352-0.844-0.788-1.66-1.294-2.434
			c-0.521-0.76-1.112-1.492-1.759-2.139s-1.365-1.224-2.14-1.745c-0.76-0.507-1.575-0.943-2.42-1.294
			c-0.857-0.352-1.745-0.619-2.631-0.802c-1.815-0.366-3.687-0.366-5.502,0c-0.901,0.183-1.787,0.45-2.63,0.802
			c-0.858,0.352-1.674,0.788-2.434,1.294c-0.774,0.521-1.492,1.098-2.139,1.745s-1.24,1.379-1.745,2.139
			c-0.507,0.774-0.943,1.59-1.295,2.434c-0.352,0.844-0.619,1.731-0.802,2.631c-0.183,0.915-0.281,1.829-0.281,2.758
			c0,0.915,0.099,1.829,0.281,2.744c0.183,0.901,0.45,1.787,0.802,2.631c0.352,0.844,0.788,1.66,1.295,2.434
			c0.505,0.76,1.098,1.492,1.745,2.139s1.365,1.238,2.139,1.745c0.76,0.507,1.576,0.943,2.434,1.295
			c0.844,0.352,1.729,0.619,2.63,0.802c0.902,0.183,1.831,0.281,2.744,0.281c0.915,0,1.845-0.099,2.758-0.281
			c0.886-0.183,1.774-0.45,2.631-0.802c0.846-0.352,1.66-0.788,2.42-1.295c0.775-0.507,1.493-1.098,2.14-1.745
			s1.238-1.379,1.759-2.139c0.507-0.774,0.943-1.59,1.294-2.434c0.352-0.844,0.619-1.731,0.802-2.631
			c0.183-0.915,0.266-1.829,0.266-2.744C348.252,308.02,348.168,307.105,347.986,306.191z"/>
	</g>
</g>
<g>
	<g>
		<path d="M347.986,185.362c-0.182-0.901-0.45-1.787-0.802-2.631c-0.352-0.858-0.788-1.674-1.294-2.434
			c-0.521-0.774-1.112-1.492-1.759-2.139s-1.365-1.238-2.14-1.745c-0.76-0.507-1.575-0.943-2.42-1.295
			c-0.857-0.352-1.745-0.633-2.631-0.802c-1.815-0.366-3.687-0.366-5.502,0c-0.901,0.169-1.787,0.45-2.63,0.802
			c-0.858,0.352-1.674,0.788-2.434,1.295c-0.774,0.507-1.492,1.098-2.139,1.745s-1.24,1.365-1.745,2.139
			c-0.507,0.76-0.943,1.576-1.295,2.434c-0.352,0.844-0.619,1.731-0.802,2.631c-0.183,0.901-0.281,1.829-0.281,2.744
			s0.099,1.843,0.281,2.744s0.45,1.787,0.802,2.631c0.352,0.858,0.788,1.674,1.295,2.434c0.505,0.774,1.098,1.492,1.745,2.139
			s1.365,1.238,2.139,1.759c0.76,0.507,1.576,0.929,2.434,1.295c0.844,0.352,1.729,0.619,2.63,0.802
			c0.902,0.183,1.831,0.267,2.744,0.267c0.915,0,1.845-0.084,2.758-0.267c0.886-0.183,1.774-0.45,2.631-0.802
			c0.846-0.352,1.66-0.788,2.42-1.295c0.775-0.521,1.493-1.112,2.14-1.759s1.238-1.365,1.759-2.139
			c0.507-0.76,0.943-1.576,1.294-2.434c0.352-0.844,0.619-1.731,0.802-2.631c0.183-0.901,0.266-1.829,0.266-2.744
			S348.168,186.262,347.986,185.362z"/>
	</g>
</g>
<g>
	<g>
		<path d="M191.614,245.151c-0.183-0.901-0.45-1.787-0.802-2.631c-0.352-0.858-0.788-1.674-1.295-2.434
			c-0.507-0.774-1.098-1.492-1.745-2.139c-0.647-0.647-1.365-1.238-2.139-1.745c-0.76-0.507-1.576-0.943-2.434-1.295
			c-0.844-0.352-1.731-0.619-2.631-0.802c-1.815-0.366-3.687-0.366-5.502,0c-0.886,0.183-1.773,0.45-2.631,0.802
			c-0.844,0.352-1.66,0.788-2.42,1.295c-0.774,0.507-1.492,1.098-2.139,1.745c-0.647,0.647-1.238,1.365-1.759,2.139
			c-0.507,0.76-0.943,1.576-1.295,2.434c-0.352,0.844-0.619,1.731-0.802,2.631c-0.183,0.901-0.267,1.829-0.267,2.744
			s0.084,1.843,0.267,2.744s0.45,1.787,0.802,2.645c0.352,0.844,0.788,1.66,1.295,2.42c0.521,0.774,1.112,1.492,1.759,2.139
			c0.647,0.647,1.365,1.238,2.139,1.759c0.76,0.507,1.576,0.943,2.42,1.295c0.858,0.352,1.745,0.619,2.631,0.802
			c0.915,0.183,1.843,0.267,2.758,0.267c0.915,0,1.843-0.084,2.744-0.267s1.787-0.45,2.631-0.802
			c0.858-0.352,1.674-0.788,2.434-1.295c0.774-0.521,1.492-1.112,2.139-1.759c0.647-0.647,1.238-1.365,1.745-2.139
			c0.507-0.76,0.943-1.576,1.295-2.42c0.352-0.858,0.619-1.745,0.802-2.645c0.183-0.901,0.281-1.829,0.281-2.744
			S191.797,246.052,191.614,245.151z"/>
	</g>
</g>
</svg>
