<svg width="25" height="32" viewBox="0 0 25 32" fill="none" xmlns="http://www.w3.org/2000/svg">
<path opacity="0.5" d="M5.56809 3.97694L11.9317 1.59058H15.1135L19.0908 3.18148L21.4772 5.56784L23.0681 8.74966L23.8635 12.7269L22.2726 18.2951L13.5226 29.4315H11.9317L1.59082 16.7042V9.54511L5.56809 3.97694Z" fill="#EFD6FF"/>
<path d="M12.4992 18.1819C11.3754 18.1819 10.2769 17.8486 9.34255 17.2243C8.40818 16.6 7.67993 15.7126 7.24989 14.6744C6.81984 13.6362 6.70733 12.4937 6.92656 11.3916C7.14579 10.2894 7.68693 9.27702 8.48155 8.4824C9.27617 7.68779 10.2886 7.14665 11.3907 6.92741C12.4929 6.70818 13.6353 6.8207 14.6735 7.25074C15.7117 7.68078 16.5991 8.40904 17.2235 9.34341C17.8478 10.2778 18.181 11.3763 18.181 12.5001C18.1792 14.0064 17.58 15.4506 16.5149 16.5157C15.4497 17.5809 14.0056 18.1801 12.4992 18.1819ZM12.4992 9.09096C11.8249 9.09096 11.1658 9.2909 10.6052 9.6655C10.0446 10.0401 9.60764 10.5725 9.34961 11.1955C9.09159 11.8184 9.02407 12.5038 9.15561 13.1651C9.28716 13.8264 9.61184 14.4339 10.0886 14.9106C10.5654 15.3874 11.1728 15.7121 11.8341 15.8436C12.4954 15.9752 13.1809 15.9077 13.8038 15.6496C14.4267 15.3916 14.9592 14.9547 15.3338 14.394C15.7083 13.8334 15.9083 13.1743 15.9083 12.5001C15.9074 11.5962 15.5479 10.7296 14.9088 10.0905C14.2697 9.45133 13.4031 9.09187 12.4992 9.09096Z" fill="#8E33FF"/>
<path d="M12.5 31.8181L2.91365 20.5125C2.78044 20.3427 2.64862 20.1719 2.51819 20C0.880672 17.8429 -0.00395589 15.2082 1.32987e-05 12.5C1.32987e-05 9.18478 1.31697 6.00536 3.66117 3.66116C6.00538 1.31696 9.1848 0 12.5 0C15.8152 0 18.9946 1.31696 21.3388 3.66116C23.683 6.00536 25 9.18478 25 12.5C25.004 15.207 24.1197 17.8405 22.4829 19.9966L22.4818 20C22.4818 20 22.1409 20.4477 22.0898 20.5079L12.5 31.8181ZM4.33183 18.6307C4.3341 18.6307 4.59774 18.9807 4.65796 19.0557L12.5 28.3045L20.3523 19.0432C20.4023 18.9807 20.6682 18.6284 20.6693 18.6273C22.007 16.8649 22.7299 14.7125 22.7273 12.5C22.7273 9.78755 21.6497 7.1862 19.7318 5.26822C17.8138 3.35024 15.2124 2.27272 12.5 2.27272C9.78756 2.27272 7.18622 3.35024 5.26823 5.26822C3.35025 7.1862 2.27274 9.78755 2.27274 12.5C2.27035 14.7139 2.99407 16.8675 4.33296 18.6307H4.33183Z" fill="#8E33FF"/>
</svg>
